<svg id="Layer_1" data-name="Layer 1" xmlns="http://www.w3.org/2000/svg" viewBox="0 0 78.36 93.43"><defs><style>.cls-1{fill:#010101;}</style></defs><path class="cls-1" d="M89,35.4A35.86,35.86,0,0,0,56.88,3.48a23,23,0,0,0-3.7-.2A36,36,0,0,0,19.9,25.67,85.87,85.87,0,0,1,15,36.37l-3.5,6.43a5.73,5.73,0,0,0,.19,5.84,6.06,6.06,0,0,0,5.06,2.92,2,2,0,0,1,1.95,1.94V64.21a10.89,10.89,0,0,0,10.9,10.9,4.41,4.41,0,0,1,4.48,4.48V94.77a1.84,1.84,0,0,0,1.94,2H70.7a1.84,1.84,0,0,0,2-2,68,68,0,0,1,10.9-36.59A35,35,0,0,0,89,35.4ZM80.44,56A73.49,73.49,0,0,0,69,92.82H38.2V79.59a8.31,8.31,0,0,0-8.37-8.37,7,7,0,0,1-7-7V53.5A5.86,5.86,0,0,0,17,47.66a2.41,2.41,0,0,1-1.75-1,1.72,1.72,0,0,1,0-1.95l3.31-6.42c1.94-3.7,3.5-7.4,5.06-11.09a31.63,31.63,0,0,1,29.58-20,20.42,20.42,0,0,1,3.31.19C71.29,8.73,83.55,21,85.11,35.79A30.78,30.78,0,0,1,80.44,56Z" transform="translate(-10.82 -3.28)"/><path class="cls-1" d="M72.65,35V33.84a8.6,8.6,0,0,0-4.48-7.59,6.41,6.41,0,0,0,.2-1.94,8.94,8.94,0,0,0-9-9,9.59,9.59,0,0,0-7,3.31,8.43,8.43,0,0,0-7-3.31,8.93,8.93,0,0,0-9,9,5.82,5.82,0,0,0,.2,1.94,8.84,8.84,0,0,0-4.48,7.59V35a8.87,8.87,0,0,0,0,15.18A5.56,5.56,0,0,0,32,52a8.61,8.61,0,0,0,4.47,7.59,6.73,6.73,0,0,0-.19,1.94,8.93,8.93,0,0,0,9,9,9.59,9.59,0,0,0,7-3.31,8.43,8.43,0,0,0,7,3.31,8.93,8.93,0,0,0,9-9A6.11,6.11,0,0,0,68,59.54,8.85,8.85,0,0,0,72.45,52a5.56,5.56,0,0,0-.19-1.76,8.63,8.63,0,0,0,4.28-7.59A7.63,7.63,0,0,0,72.65,35ZM46,66.55a5,5,0,0,1-5.06-5.07,4,4,0,0,1,.58-2.14,2.06,2.06,0,0,0,0-1.55,1.72,1.72,0,0,0-1.16-1.17A4.8,4.8,0,0,1,36.83,52a5.87,5.87,0,0,1,.39-2,2.09,2.09,0,0,0,0-1.56,1.23,1.23,0,0,0-1.17-1,4.78,4.78,0,0,1-3.5-4.67,5,5,0,0,1,3.31-4.67,2.05,2.05,0,0,0,1.17-1,2.16,2.16,0,0,0,0-1.55,5.58,5.58,0,0,1-.39-1.76,4.79,4.79,0,0,1,3.5-4.67A1.72,1.72,0,0,0,41.31,28a2.16,2.16,0,0,0,0-1.55,4.45,4.45,0,0,1-.58-2.14,5,5,0,0,1,5.06-5.07,4.92,4.92,0,0,1,5.06,5.07V61.68A4.83,4.83,0,0,1,46,66.55ZM69.73,47.27a2.05,2.05,0,0,0-1.17,1,2.19,2.19,0,0,0,0,1.56A6.69,6.69,0,0,1,69,51.75a4.78,4.78,0,0,1-3.5,4.67,1.76,1.76,0,0,0-1.17,1.17,2.09,2.09,0,0,0,0,1.56,4.42,4.42,0,0,1,.58,2.14,5.06,5.06,0,0,1-10.12,0V24.11a5.06,5.06,0,0,1,10.12,0,3.9,3.9,0,0,1-.58,2.14,2.09,2.09,0,0,0,0,1.56A1.76,1.76,0,0,0,65.45,29,4.78,4.78,0,0,1,69,33.65a5.52,5.52,0,0,1-.39,1.75,2.21,2.21,0,0,0,0,1.56,2,2,0,0,0,1.17,1A5,5,0,0,1,73,42.6,4.85,4.85,0,0,1,69.73,47.27Z" transform="translate(-10.82 -3.28)"/></svg>