<svg id="Layer_1" data-name="Layer 1" xmlns="http://www.w3.org/2000/svg" viewBox="0 0 93.38 93.38"><defs><style>.cls-1{fill:#010101;}</style></defs><path class="cls-1" d="M74.32,37.77a17.29,17.29,0,0,0-7.59,1.75c-.19,0-.19,0-.39.19.58-2.33,2.34-6.42,8.17-8.36a2,2,0,1,0-1.36-3.7A16.05,16.05,0,0,0,62.06,39.91c-.19,0-.58-.2-.78-.2A18,18,0,0,0,53.7,38a17.71,17.71,0,0,0-7.79,1.95V30.57a7.8,7.8,0,0,0-7.78-7.78h-.77V14.62a1.84,1.84,0,0,0-2-1.95H26.66V7.23H32.1a1.84,1.84,0,0,0,1.95-1.95A1.83,1.83,0,0,0,32.1,3.34H17.32a1.83,1.83,0,0,0-2,1.94,1.84,1.84,0,0,0,2,2h5.45v5.44H13.82a1.84,1.84,0,0,0-2,1.95v8h-.78a7.8,7.8,0,0,0-7.78,7.78V88.93a7.8,7.8,0,0,0,7.78,7.78h27a7.85,7.85,0,0,0,6-2.92,18.89,18.89,0,0,0,9.54,2.92,16.6,16.6,0,0,0,6-1.17,12.37,12.37,0,0,1,8.36,0,15.83,15.83,0,0,0,6,1.17c12.45,0,22.57-13.23,22.57-29.57S86.57,37.77,74.32,37.77ZM15.76,16.56h17.9v6H15.76ZM7.2,30.18a3.9,3.9,0,0,1,3.89-3.89h27A3.9,3.9,0,0,1,42,30.18V42.05c-.19.19-2.91,2.92-3.69,3.89,0,.19-.2.19-.2.39H7.2Zm0,20H35.6c-.19.19-.19.58-.38.78-4.48,8.17-3.7,17.5-3.7,18.09H7.2Zm30.93,42.6h-27A3.9,3.9,0,0,1,7.2,88.93V73H31.91v.39c.19.78.58,9.34,9.14,18.09A3.79,3.79,0,0,1,38.13,92.82Zm36.19,0A12.91,12.91,0,0,1,69.65,92a18.19,18.19,0,0,0-5.64-1,19.27,19.27,0,0,0-5.65,1,18.93,18.93,0,0,1-4.66.78c-9.54-.39-14.4-8.95-14-8.95C27.24,58,44.75,44.77,44.94,44.58a14,14,0,0,1,8.76-2.92,13.66,13.66,0,0,1,6,1.36,9.49,9.49,0,0,0,8.56,0,13,13,0,0,1,6-1.36c10.11,0,18.48,11.48,18.48,25.68S84.43,92.82,74.32,92.82Z" transform="translate(-3.31 -3.34)"/><path class="cls-1" d="M53.89,44.19c-8.75,0-15.76,10.31-15.76,23a1.95,1.95,0,1,0,3.89,0C42,57,47.67,48.08,53.89,48.08a1.84,1.84,0,0,0,2-1.95A2,2,0,0,0,53.89,44.19Z" transform="translate(-3.31 -3.34)"/></svg>