<svg id="Layer_1" data-name="Layer 1" xmlns="http://www.w3.org/2000/svg" viewBox="0 0 65.37 93.38"><defs><style>.cls-1{fill:#010101;}</style></defs><path class="cls-1" d="M75.87,44.36a39.53,39.53,0,0,0,4.87-18.29c0-6.81-2.92-22.76-29.18-22.76s-29.18,16-29.18,22.76a40.49,40.49,0,0,0,3.69,16,32.09,32.09,0,0,0-8.75,22A32.68,32.68,0,1,0,75.87,44.36ZM50,92.8A28.85,28.85,0,0,1,21.21,64a28.12,28.12,0,0,1,8.36-20.24A2,2,0,0,0,30,41.44a35.4,35.4,0,0,1-3.89-15.56C26.07,17.32,30.55,7,51.36,7c21,0,25.29,10.31,25.29,18.87a35.4,35.4,0,0,1-5.06,17.51,1.76,1.76,0,0,0,.2,2.14A28.5,28.5,0,0,1,78.4,63.81,28.32,28.32,0,0,1,50,92.8Z" transform="translate(-17.32 -3.31)"/><path class="cls-1" d="M51.56,11.68c-14.4,0-21,4.47-21,14.39a31.62,31.62,0,0,0,2.72,12.06,1.23,1.23,0,0,0,1.17,1,1.47,1.47,0,0,0,1.55-.2,28.82,28.82,0,0,1,30.16,1.17,2.85,2.85,0,0,0,1.16.39h.59a2.05,2.05,0,0,0,1.17-1,30.16,30.16,0,0,0,3.5-13.61C72.37,16.15,65.76,11.68,51.56,11.68ZM66.34,35.8A31.69,31.69,0,0,0,50,31.32a30.58,30.58,0,0,0-13.81,3.12,23,23,0,0,1-1.75-8.37c0-3.5,0-10.5,17.12-10.5s17.12,7,17.12,10.5A32.32,32.32,0,0,1,66.34,35.8Z" transform="translate(-17.32 -3.31)"/><path class="cls-1" d="M50,50.39A13.62,13.62,0,1,0,63.62,64,13.53,13.53,0,0,0,50,50.39Zm0,23.34A9.73,9.73,0,1,1,59.73,64,9.63,9.63,0,0,1,50,73.73Z" transform="translate(-17.32 -3.31)"/></svg>