<svg id="Layer_1" data-name="Layer 1" xmlns="http://www.w3.org/2000/svg" viewBox="0 0 84.06 93.19"><defs><style>.cls-1{fill:#010101;}</style></defs><path class="cls-1" d="M91.65,62.16,77.86,12.66C75.73,3.53,68.93,3.34,68,3.34H51.46c-4.66.58-7,3.1-8,5.24A10.17,10.17,0,0,0,47.19,21a18.87,18.87,0,0,0,10.87,3.3,25.71,25.71,0,0,0,7.38-1.16L61,48a15.48,15.48,0,0,0-9.51-3.11A20.87,20.87,0,0,0,40,48.77c-6.21-8.93-14.17-10.88-19.61-10.88A29.4,29.4,0,0,0,8.94,40.42a2,2,0,0,0-1,1.75V94.58a2,2,0,0,0,1.94,2h.58c9.52,0,14.37-9.71,16.12-14.76a33.36,33.36,0,0,0,21.55,7.38,48.12,48.12,0,0,0,18-3.69c1.17-.39,2.33-1,3.5-1.36l15.72-5.63a.19.19,0,0,0,.2-.19C94,73.62,91.84,62.74,91.65,62.16ZM83.49,75,67.77,80.61c-1.17.38-2.53,1-3.69,1.35a44.57,44.57,0,0,1-16.51,3.5,30,30,0,0,1-21.16-8.35,1.79,1.79,0,0,0-1.94-.39,2.4,2.4,0,0,0-1.36,1.36c0,.2-3.3,13.4-11.84,14.76V43.52A25.14,25.14,0,0,1,20,41.78c7.18,0,13.2,3.69,17.47,10.87a2.25,2.25,0,0,0,1.36,1A2.19,2.19,0,0,0,40.39,53s4.66-4.27,10.68-4.27A13.36,13.36,0,0,1,60.58,53a1.8,1.8,0,0,0,1.94.39,1.88,1.88,0,0,0,1.36-1.56l5.83-31.45a1.85,1.85,0,0,0-.78-1.94,2.07,2.07,0,0,0-2.13-.19,23.22,23.22,0,0,1-8.94,1.94,14.86,14.86,0,0,1-8.73-2.53,6.25,6.25,0,0,1-2.33-7.57,6.74,6.74,0,0,1,5.05-2.91h16.3c.39,0,4.47.19,6,6.41L88,63.13S89.7,71.48,83.49,75Z" transform="translate(-7.97 -3.34)"/></svg>