<svg id="Layer_1" data-name="Layer 1" xmlns="http://www.w3.org/2000/svg" viewBox="0 0 64 93.38"><defs><style>.cls-1{fill:#010101;}</style></defs><path class="cls-1" d="M79.86,18.12H69.16v-3.5a1.84,1.84,0,0,0-1.94-1.95H59.05a1.46,1.46,0,0,1-.78-.38.71.71,0,0,1-.2-.59,14.73,14.73,0,0,0-.39-2.92,8.41,8.41,0,0,0-6.22-5.44H49.9a8.26,8.26,0,0,0-8.17,8.36,1,1,0,0,1-.39.78.72.72,0,0,1-.58.19H32.59a1.84,1.84,0,0,0-2,1.95v3.5H19.94A1.84,1.84,0,0,0,18,20.07v74.7a1.84,1.84,0,0,0,1.94,2H80.06a1.84,1.84,0,0,0,1.94-2V20.07A2.12,2.12,0,0,0,79.86,18.12ZM34.53,16.57h6.23a5.08,5.08,0,0,0,3.31-1.37,5.13,5.13,0,0,0,1.36-3.69,4.37,4.37,0,0,1,5.25-4.28A4.2,4.2,0,0,1,54,10.15a4.35,4.35,0,0,1,.19,1.55A4.56,4.56,0,0,0,55.54,15a4.9,4.9,0,0,0,3.51,1.56h6.22v3.5h0v7.2H34.53Zm-3.89,13s.2,1.17,2,1.56H67.22A1.91,1.91,0,0,0,69,29.79V29.6h1.17V85.24H29.28V29.6ZM77.92,92.83h-56V22h8.75v3.7H27.53a1.84,1.84,0,0,0-2,1.94V87.18a1.84,1.84,0,0,0,2,1.95H72.28a1.84,1.84,0,0,0,1.94-1.95V27.65a1.84,1.84,0,0,0-1.94-1.94H69.16V22h8.76Z" transform="translate(-18 -3.34)"/><path class="cls-1" d="M35.9,54.5H63.72a1.95,1.95,0,0,0,0-3.89H35.9a1.84,1.84,0,0,0-1.95,2A2,2,0,0,0,35.9,54.5Z" transform="translate(-18 -3.34)"/><path class="cls-1" d="M35.9,43H50.1a1.95,1.95,0,0,0,0-3.89H35.9A1.84,1.84,0,0,0,34,41.08,2.09,2.09,0,0,0,35.9,43Z" transform="translate(-18 -3.34)"/><path class="cls-1" d="M35.9,66.17H63.72a1.95,1.95,0,0,0,0-3.89H35.9a1.84,1.84,0,0,0-1.95,2A1.94,1.94,0,0,0,35.9,66.17Z" transform="translate(-18 -3.34)"/><path class="cls-1" d="M35.9,77.85H63.72a1.95,1.95,0,0,0,0-3.89H35.9A1.83,1.83,0,0,0,34,75.9,2.1,2.1,0,0,0,35.9,77.85Z" transform="translate(-18 -3.34)"/></svg>