<svg id="Layer_1" data-name="Layer 1" xmlns="http://www.w3.org/2000/svg" viewBox="0 0 78.41 78.41"><defs><style>.cls-1{fill:#010101;}</style></defs><path class="cls-1" d="M79.41,10.79H20.59a9.83,9.83,0,0,0-9.8,9.8V79.41a9.83,9.83,0,0,0,9.8,9.8H79.41a9.83,9.83,0,0,0,9.8-9.8V20.59A9.83,9.83,0,0,0,79.41,10.79ZM50,28.76a4.33,4.33,0,0,1,3.92,2.62H46.08A4.33,4.33,0,0,1,50,28.76Zm7.35,2.62A7.7,7.7,0,0,0,50,25.5a7.89,7.89,0,0,0-3.92,1.14L41,21.58a1.62,1.62,0,0,0-2.29,2.28l5.06,5.07a7.76,7.76,0,0,0-1,2.45H37.42l-4.9-5.23A18.61,18.61,0,0,1,50,14.06,19,19,0,0,1,67.64,26.15l-4.9,5.23Zm28.59,48a6.55,6.55,0,0,1-6.53,6.53H51.63V49.35a1.63,1.63,0,1,0-3.26,0V85.94H20.59a6.55,6.55,0,0,1-6.53-6.53V20.59a6.55,6.55,0,0,1,6.53-6.53H38.4A21.56,21.56,0,0,0,28.93,26a2,2,0,0,0,.32,1.63l6,6.53a1.72,1.72,0,0,0,1.14.49h27a1.47,1.47,0,0,0,1.14-.49l6-6.53A1.9,1.9,0,0,0,70.91,26a21.56,21.56,0,0,0-9.47-11.93h18a6.55,6.55,0,0,1,6.53,6.53Z" transform="translate(-10.79 -10.79)"/></svg>